<?xml version="1.0" encoding="UTF-8" standalone="no"?>
<!DOCTYPE svg PUBLIC "-//W3C//DTD SVG 1.1//EN"
 "http://www.w3.org/Graphics/SVG/1.1/DTD/svg11.dtd">
<!-- Generated by graphviz version 2.40.1 (20161225.0304)
 -->
<!-- Title: G Pages: 1 -->
<svg width="292pt" height="109pt"
 viewBox="0.00 0.00 291.73 109.30" xmlns="http://www.w3.org/2000/svg" xmlns:xlink="http://www.w3.org/1999/xlink">
<g id="graph0" class="graph" transform="scale(1 1) rotate(0) translate(21.6 87.6986)">
<title>G</title>
<polygon fill="#111111" stroke="transparent" points="-21.6,21.6 -21.6,-87.6986 270.1303,-87.6986 270.1303,21.6 -21.6,21.6"/>
<!-- index.js -->
<g id="node1" class="node">
<title>index.js</title>
<path fill="none" stroke="#ff6c60" d="M55.639,-24.1482C55.639,-24.1482 7.8298,-24.1482 7.8298,-24.1482 3.7968,-24.1482 -.2361,-20.1152 -.2361,-16.0823 -.2361,-16.0823 -.2361,-8.0164 -.2361,-8.0164 -.2361,-3.9834 3.7968,.0495 7.8298,.0495 7.8298,.0495 55.639,.0495 55.639,.0495 59.6719,.0495 63.7049,-3.9834 63.7049,-8.0164 63.7049,-8.0164 63.7049,-16.0823 63.7049,-16.0823 63.7049,-20.1152 59.6719,-24.1482 55.639,-24.1482"/>
<text text-anchor="middle" x="31.7344" y="-8.8986" font-family="Arial" font-size="14.00" fill="#ff6c60">index.js</text>
</g>
<!-- shared&#45;re&#45;exported.js -->
<g id="node2" class="node">
<title>shared&#45;re&#45;exported.js</title>
<path fill="none" stroke="#cfffac" d="M240.4952,-66.1482C240.4952,-66.1482 107.5039,-66.1482 107.5039,-66.1482 103.4709,-66.1482 99.438,-62.1152 99.438,-58.0823 99.438,-58.0823 99.438,-50.0164 99.438,-50.0164 99.438,-45.9834 103.4709,-41.9505 107.5039,-41.9505 107.5039,-41.9505 240.4952,-41.9505 240.4952,-41.9505 244.5281,-41.9505 248.561,-45.9834 248.561,-50.0164 248.561,-50.0164 248.561,-58.0823 248.561,-58.0823 248.561,-62.1152 244.5281,-66.1482 240.4952,-66.1482"/>
<text text-anchor="middle" x="173.9995" y="-50.8986" font-family="Arial" font-size="14.00" fill="#cfffac">shared&#45;re&#45;exported.js</text>
</g>
<!-- index.js&#45;&gt;shared&#45;re&#45;exported.js -->
<g id="edge1" class="edge">
<title>index.js&#45;&gt;shared&#45;re&#45;exported.js</title>
<path fill="none" stroke="#757575" d="M63.7264,-22.1551C75.0032,-25.6676 87.781,-29.5916 99.4688,-33.0493 106.1378,-35.0223 113.1551,-37.0555 120.1077,-39.044"/>
<polygon fill="#757575" stroke="#757575" points="119.6235,-42.545 130.1995,-41.9131 121.5378,-35.8118 119.6235,-42.545"/>
</g>
<!-- two.js -->
<g id="node3" class="node">
<title>two.js</title>
<path fill="none" stroke="#ff6c60" d="M192.9336,-24.1482C192.9336,-24.1482 155.0654,-24.1482 155.0654,-24.1482 151.0325,-24.1482 146.9995,-20.1152 146.9995,-16.0823 146.9995,-16.0823 146.9995,-8.0164 146.9995,-8.0164 146.9995,-3.9834 151.0325,.0495 155.0654,.0495 155.0654,.0495 192.9336,.0495 192.9336,.0495 196.9666,.0495 200.9995,-3.9834 200.9995,-8.0164 200.9995,-8.0164 200.9995,-16.0823 200.9995,-16.0823 200.9995,-20.1152 196.9666,-24.1482 192.9336,-24.1482"/>
<text text-anchor="middle" x="173.9995" y="-8.8986" font-family="Arial" font-size="14.00" fill="#ff6c60">two.js</text>
</g>
<!-- index.js&#45;&gt;two.js -->
<g id="edge2" class="edge">
<title>index.js&#45;&gt;two.js</title>
<path fill="none" stroke="#757575" d="M63.6614,-6.3088C85.3025,-5.0637 113.9843,-4.9704 136.6807,-6.0288"/>
<polygon fill="#757575" stroke="#757575" points="136.778,-9.5401 146.962,-6.6184 137.1788,-2.5516 136.778,-9.5401"/>
</g>
<!-- two.js&#45;&gt;index.js -->
<g id="edge3" class="edge">
<title>two.js&#45;&gt;index.js</title>
<path fill="none" stroke="#757575" d="M146.962,-17.4802C126.3028,-18.9164 97.449,-19.1798 73.7835,-18.2706"/>
<polygon fill="#757575" stroke="#757575" points="73.8163,-14.7683 63.6614,-17.7898 73.4841,-21.7604 73.8163,-14.7683"/>
</g>
</g>
</svg>
