<?xml version="1.0" encoding="UTF-8" standalone="no"?>
<!DOCTYPE svg PUBLIC "-//W3C//DTD SVG 1.1//EN"
 "http://www.w3.org/Graphics/SVG/1.1/DTD/svg11.dtd">
<!-- Generated by graphviz version 2.40.1 (20161225.0304)
 -->
<!-- Title: G Pages: 1 -->
<svg width="215pt" height="109pt"
 viewBox="0.00 0.00 215.48 109.30" xmlns="http://www.w3.org/2000/svg" xmlns:xlink="http://www.w3.org/1999/xlink">
<g id="graph0" class="graph" transform="scale(1 1) rotate(0) translate(21.6 87.6986)">
<title>G</title>
<polygon fill="#111111" stroke="transparent" points="-21.6,21.6 -21.6,-87.6986 193.8754,-87.6986 193.8754,21.6 -21.6,21.6"/>
<!-- index.js -->
<g id="node1" class="node">
<title>index.js</title>
<path fill="none" stroke="#ff6c60" d="M55.639,-24.1482C55.639,-24.1482 7.8298,-24.1482 7.8298,-24.1482 3.7968,-24.1482 -.2361,-20.1152 -.2361,-16.0823 -.2361,-16.0823 -.2361,-8.0164 -.2361,-8.0164 -.2361,-3.9834 3.7968,.0495 7.8298,.0495 7.8298,.0495 55.639,.0495 55.639,.0495 59.6719,.0495 63.7049,-3.9834 63.7049,-8.0164 63.7049,-8.0164 63.7049,-16.0823 63.7049,-16.0823 63.7049,-20.1152 59.6719,-24.1482 55.639,-24.1482"/>
<text text-anchor="middle" x="31.7344" y="-8.8986" font-family="Arial" font-size="14.00" fill="#ff6c60">index.js</text>
</g>
<!-- shared.js -->
<g id="node2" class="node">
<title>shared.js</title>
<path fill="none" stroke="#cfffac" d="M164.1131,-66.1482C164.1131,-66.1482 107.6311,-66.1482 107.6311,-66.1482 103.5981,-66.1482 99.5652,-62.1152 99.5652,-58.0823 99.5652,-58.0823 99.5652,-50.0164 99.5652,-50.0164 99.5652,-45.9834 103.5981,-41.9505 107.6311,-41.9505 107.6311,-41.9505 164.1131,-41.9505 164.1131,-41.9505 168.146,-41.9505 172.179,-45.9834 172.179,-50.0164 172.179,-50.0164 172.179,-58.0823 172.179,-58.0823 172.179,-62.1152 168.146,-66.1482 164.1131,-66.1482"/>
<text text-anchor="middle" x="135.8721" y="-50.8986" font-family="Arial" font-size="14.00" fill="#cfffac">shared.js</text>
</g>
<!-- index.js&#45;&gt;shared.js -->
<g id="edge1" class="edge">
<title>index.js&#45;&gt;shared.js</title>
<path fill="none" stroke="#757575" d="M61.8553,-24.1975C72.6491,-28.5507 84.9832,-33.5252 96.4469,-38.1487"/>
<polygon fill="#757575" stroke="#757575" points="95.2355,-41.434 105.8188,-41.9285 97.8538,-34.9421 95.2355,-41.434"/>
</g>
<!-- two.js -->
<g id="node3" class="node">
<title>two.js</title>
<path fill="none" stroke="#ff6c60" d="M154.8062,-24.1482C154.8062,-24.1482 116.938,-24.1482 116.938,-24.1482 112.905,-24.1482 108.8721,-20.1152 108.8721,-16.0823 108.8721,-16.0823 108.8721,-8.0164 108.8721,-8.0164 108.8721,-3.9834 112.905,.0495 116.938,.0495 116.938,.0495 154.8062,.0495 154.8062,.0495 158.8391,.0495 162.8721,-3.9834 162.8721,-8.0164 162.8721,-8.0164 162.8721,-16.0823 162.8721,-16.0823 162.8721,-20.1152 158.8391,-24.1482 154.8062,-24.1482"/>
<text text-anchor="middle" x="135.8721" y="-8.8986" font-family="Arial" font-size="14.00" fill="#ff6c60">two.js</text>
</g>
<!-- index.js&#45;&gt;two.js -->
<g id="edge2" class="edge">
<title>index.js&#45;&gt;two.js</title>
<path fill="none" stroke="#757575" d="M63.545,-5.7756C74.6275,-5.2281 87.1606,-5.1526 98.6431,-5.5491"/>
<polygon fill="#757575" stroke="#757575" points="98.6624,-9.0541 108.8211,-6.0459 99.0037,-2.0625 98.6624,-9.0541"/>
</g>
<!-- two.js&#45;&gt;index.js -->
<g id="edge3" class="edge">
<title>two.js&#45;&gt;index.js</title>
<path fill="none" stroke="#757575" d="M108.8211,-18.0527C98.108,-18.7451 85.5414,-18.9559 73.6998,-18.6851"/>
<polygon fill="#757575" stroke="#757575" points="73.6633,-15.1816 63.545,-18.3231 73.4139,-22.1772 73.6633,-15.1816"/>
</g>
</g>
</svg>
